# xmcd
#
# Track frame offsets: 
#        150
#        22210
#        37513
#        48242
#        69631
#        85306
#        118159
#        135268
#        147837
#        163069
#        178998
#        199659
#        217948
#        243115
#        255185
#        283071
#        306283
#        326531
#
# Disc length: 4784 seconds
#
# Revision: 0
# Processed by: cddbd v1.5.2PL0 Copyright (c) Steve Scherf et al.
# Submitted via: ExactAudioCopy v0.95a5
#
DISCID=fb12ae12
DTITLE=Various Artist - Blues Instrumental - 4
DYEAR=2007
DGENRE=Blues
TTITLE0=Do The Memphis Grind - DUKE ROBILLARD
TTITLE1=Ida Y Vuelta (Out and Back) - PETER FRAMPTON
TTITLE2=Henry's Hideaway - HENRY COOPER
TTITLE3=Dinner At Woolfie's - TOSCHO
TTITLE4=The River - EDDIE TURNER
TTITLE5=Where's Lucky - BERNARD ALLISON
TTITLE6=Pourin' Down Me - ROB TOGNONI
TTITLE7=Now I know - AMAR SUNDY
TTITLE8=Easy - SNOWY WHITE
TTITLE9=Straight Crazy - BRAD KELSEY
TTITLE10=No Way Out - DUKE ROBILLARD
TTITLE11=Agua Clara - VARGAS BLUES BAND
TTITLE12=Cut It Out - GARY MOORE
TTITLE13=Find My Kinda Woman - HENRY COOPER
TTITLE14=Oh When... - PETER FRAMPTON
TTITLE15=Danny Boy - DUKE ROBILLARD
TTITLE16=Blow Jay Blow - BLUES COMPANY
TTITLE17=For Abby - RONNIE EARL
EXTD=
EXTT0=
EXTT1=
EXTT2=
EXTT3=
EXTT4=
EXTT5=
EXTT6=
EXTT7=
EXTT8=
EXTT9=
EXTT10=
EXTT11=
EXTT12=
EXTT13=
EXTT14=
EXTT15=
EXTT16=
EXTT17=
PLAYORDER=
